<?xml version="1.0" encoding="utf-8"?>
<!-- Generator: Adobe Illustrator 16.0.0, SVG Export Plug-In . SVG Version: 6.00 Build 0)  -->
<!DOCTYPE svg PUBLIC "-//W3C//DTD SVG 1.1//EN" "http://www.w3.org/Graphics/SVG/1.1/DTD/svg11.dtd">
<svg version="1.1" id="Layer_1" xmlns="http://www.w3.org/2000/svg" xmlns:xlink="http://www.w3.org/1999/xlink" x="0px" y="0px"
	 width="200px" height="200px" viewBox="0 0 200 200" enable-background="new 0 0 200 200" xml:space="preserve">
<g>
	<g>
		<path fill="#E90B8A" d="M100,25c22.607,0,41,18.393,41,41s-18.393,41-41,41S59,88.607,59,66S77.393,25,100,25 M100,0
			C63.549,0,34,29.549,34,66s29.549,66,66,66s66-29.549,66-66S136.451,0,100,0L100,0z"/>
	</g>
</g>
<g>
	<rect x="32.5" y="142" fill="#FFFFFF" width="135" height="20"/>
	<polygon fill="#E90B8A" points="167.5,142 32.5,142 32.5,162 167.5,162 167.5,142 	"/>
</g>
<g>
	<rect x="50" y="171.835" fill="#FFFFFF" width="100" height="20"/>
	<polygon fill="#E90B8A" points="150,171.835 50,171.835 50,191.835 150,191.835 150,171.835 	"/>
</g>
</svg>
